<?xml version="1.0" encoding="UTF-8"?><svg xmlns="http://www.w3.org/2000/svg" xmlns:xlink="http://www.w3.org/1999/xlink" fill-opacity="1" color-rendering="auto" color-interpolation="auto" text-rendering="auto" stroke="black" stroke-linecap="square" width="826" stroke-miterlimit="10" shape-rendering="auto" stroke-opacity="1" fill="black" stroke-dasharray="none" font-weight="normal" stroke-width="1" height="580" font-family="'Dialog'" font-style="normal" stroke-linejoin="miter" font-size="12px" stroke-dashoffset="0" image-rendering="auto">
  <!--Generated by ySVG 2.6-->
  <defs id="genericDefs"/>
  <g>
    <defs id="defs1">
      <clipPath clipPathUnits="userSpaceOnUse" id="clipPath1">
        <path d="M0 0 L826 0 L826 580 L0 580 L0 0 Z"/>
      </clipPath>
      <clipPath clipPathUnits="userSpaceOnUse" id="clipPath2">
        <path d="M-231 64 L595 64 L595 644 L-231 644 L-231 64 Z"/>
      </clipPath>
    </defs>
    <g fill="white" text-rendering="geometricPrecision" shape-rendering="geometricPrecision" transform="translate(231,-64)" stroke="white">
      <rect x="-231" width="826" height="580" y="64" clip-path="url(#clipPath2)" stroke="none"/>
    </g>
    <g fill="rgb(204,255,204)" text-rendering="geometricPrecision" shape-rendering="geometricPrecision" transform="matrix(1,0,0,1,231,-64)" stroke="rgb(204,255,204)">
      <ellipse rx="52" ry="26" clip-path="url(#clipPath2)" cx="188" cy="105" stroke="none"/>
    </g>
    <g text-rendering="geometricPrecision" stroke-miterlimit="1.45" shape-rendering="geometricPrecision" transform="matrix(1,0,0,1,231,-64)" stroke-linecap="butt">
      <ellipse rx="52" fill="none" ry="26" clip-path="url(#clipPath2)" cx="188" cy="105"/>
      <text x="146.3076" xml:space="preserve" y="109.7139" clip-path="url(#clipPath2)" font-family="sans-serif" stroke="none">bootloader start</text>
    </g>
    <g fill="rgb(51,204,204)" text-rendering="geometricPrecision" shape-rendering="geometricPrecision" transform="matrix(1,0,0,1,231,-64)" stroke="rgb(51,204,204)">
      <path d="M132.5 209.5 L188 169 L243.5 209.5 L188 250 Z" fill-rule="evenodd" clip-path="url(#clipPath2)" stroke="none"/>
    </g>
    <g text-rendering="geometricPrecision" stroke-miterlimit="1.45" shape-rendering="geometricPrecision" transform="matrix(1,0,0,1,231,-64)" stroke-linecap="butt">
      <path fill="none" d="M132.5 209.5 L188 169 L243.5 209.5 L188 250 Z" fill-rule="evenodd" clip-path="url(#clipPath2)"/>
      <text x="146.3047" xml:space="preserve" y="214.2139" clip-path="url(#clipPath2)" font-family="sans-serif" stroke="none">Reboot Cause?</text>
    </g>
    <g fill="rgb(255,204,0)" text-rendering="geometricPrecision" shape-rendering="geometricPrecision" transform="matrix(1,0,0,1,231,-64)" stroke="rgb(255,204,0)">
      <path d="M-41.625 334.5 L3.25 303 L48.125 334.5 L3.25 366 Z" fill-rule="evenodd" clip-path="url(#clipPath2)" stroke="none"/>
    </g>
    <g text-rendering="geometricPrecision" stroke-miterlimit="1.45" shape-rendering="geometricPrecision" transform="matrix(1,0,0,1,231,-64)" stroke-linecap="butt">
      <path fill="none" d="M-41.625 334.5 L3.25 303 L48.125 334.5 L3.25 366 Z" fill-rule="evenodd" clip-path="url(#clipPath2)"/>
      <text x="-30.7578" xml:space="preserve" y="339.2139" clip-path="url(#clipPath2)" font-family="sans-serif" stroke="none">IS CRC OK?</text>
    </g>
    <g fill="rgb(204,255,255)" text-rendering="geometricPrecision" shape-rendering="geometricPrecision" transform="matrix(1,0,0,1,231,-64)" stroke="rgb(204,255,255)">
      <rect x="136" y="419" clip-path="url(#clipPath2)" width="104" rx="4" ry="4" height="68" stroke="none"/>
    </g>
    <g text-rendering="geometricPrecision" stroke-miterlimit="1.45" shape-rendering="geometricPrecision" transform="matrix(1,0,0,1,231,-64)" stroke-linecap="butt">
      <rect x="136" y="419" clip-path="url(#clipPath2)" fill="none" width="104" rx="4" ry="4" height="68"/>
      <text x="147.9805" xml:space="preserve" y="435.6621" clip-path="url(#clipPath2)" font-family="sans-serif" stroke="none">Copy previuos </text>
      <text x="158.6475" xml:space="preserve" y="450.3633" clip-path="url(#clipPath2)" font-family="sans-serif" stroke="none">Application</text>
      <text x="142.3145" xml:space="preserve" y="465.0645" clip-path="url(#clipPath2)" font-family="sans-serif" stroke="none">from backup slot </text>
      <text x="140.9727" xml:space="preserve" y="479.7656" clip-path="url(#clipPath2)" font-family="sans-serif" stroke="none">to Application slot</text>
    </g>
    <g fill="rgb(204,255,255)" text-rendering="geometricPrecision" shape-rendering="geometricPrecision" transform="matrix(1,0,0,1,231,-64)" stroke="rgb(204,255,255)">
      <rect x="132.5" y="523.25" clip-path="url(#clipPath2)" width="111" rx="4" ry="4" height="37.4167" stroke="none"/>
    </g>
    <g text-rendering="geometricPrecision" stroke-miterlimit="1.45" shape-rendering="geometricPrecision" transform="matrix(1,0,0,1,231,-64)" stroke-linecap="butt">
      <rect x="132.5" y="523.25" clip-path="url(#clipPath2)" fill="none" width="111" rx="4" ry="4" height="37.4167"/>
      <text x="143.6387" xml:space="preserve" y="539.3216" clip-path="url(#clipPath2)" font-family="sans-serif" stroke="none">set reboot cause</text>
      <text x="162.9893" xml:space="preserve" y="554.0228" clip-path="url(#clipPath2)" font-family="sans-serif" stroke="none">to normal</text>
    </g>
    <g fill="rgb(255,204,0)" text-rendering="geometricPrecision" shape-rendering="geometricPrecision" transform="matrix(1,0,0,1,231,-64)" stroke="rgb(255,204,0)">
      <path d="M125.625 334.5 L188 288 L250.375 334.5 L188 381 Z" fill-rule="evenodd" clip-path="url(#clipPath2)" stroke="none"/>
    </g>
    <g text-rendering="geometricPrecision" stroke-miterlimit="1.45" shape-rendering="geometricPrecision" transform="matrix(1,0,0,1,231,-64)" stroke-linecap="butt">
      <path fill="none" d="M125.625 334.5 L188 288 L250.375 334.5 L188 381 Z" fill-rule="evenodd" clip-path="url(#clipPath2)"/>
      <text x="145.9795" xml:space="preserve" y="331.8633" clip-path="url(#clipPath2)" font-family="sans-serif" stroke="none">Is There a Valid</text>
      <text x="153.6377" xml:space="preserve" y="346.5645" clip-path="url(#clipPath2)" font-family="sans-serif" stroke="none">backup app?</text>
    </g>
    <g fill="red" text-rendering="geometricPrecision" shape-rendering="geometricPrecision" transform="matrix(1,0,0,1,231,-64)" stroke="red">
      <rect x="296.1875" y="590.6667" clip-path="url(#clipPath2)" width="76.25" rx="4" ry="4" height="37.4167" stroke="none"/>
    </g>
    <g text-rendering="geometricPrecision" stroke-miterlimit="1.45" shape-rendering="geometricPrecision" transform="matrix(1,0,0,1,231,-64)" stroke-linecap="butt">
      <rect x="296.1875" y="590.6667" clip-path="url(#clipPath2)" fill="none" width="76.25" rx="4" ry="4" height="37.4167"/>
      <text x="318.9756" xml:space="preserve" y="614.0889" clip-path="url(#clipPath2)" font-family="sans-serif" stroke="none">HALT</text>
    </g>
    <g fill="rgb(0,204,255)" text-rendering="geometricPrecision" shape-rendering="geometricPrecision" transform="matrix(1,0,0,1,231,-64)" stroke="rgb(0,204,255)">
      <rect x="-52.25" y="427" clip-path="url(#clipPath2)" width="111" rx="4" ry="4" height="37.4167" stroke="none"/>
    </g>
    <g text-rendering="geometricPrecision" stroke-miterlimit="1.45" shape-rendering="geometricPrecision" transform="matrix(1,0,0,1,231,-64)" stroke-linecap="butt">
      <rect x="-52.25" y="427" clip-path="url(#clipPath2)" fill="none" width="111" rx="4" ry="4" height="37.4167"/>
      <text x="-40.4404" xml:space="preserve" y="450.4222" clip-path="url(#clipPath2)" font-family="sans-serif" stroke="none">Start Application</text>
    </g>
    <g fill="rgb(204,255,255)" text-rendering="geometricPrecision" shape-rendering="geometricPrecision" transform="matrix(1,0,0,1,231,-64)" stroke="rgb(204,255,255)">
      <rect x="-215.625" y="419.7083" clip-path="url(#clipPath2)" width="111" rx="4" ry="4" height="52" stroke="none"/>
    </g>
    <g text-rendering="geometricPrecision" stroke-miterlimit="1.45" shape-rendering="geometricPrecision" transform="matrix(1,0,0,1,231,-64)" stroke-linecap="butt">
      <rect x="-215.625" y="419.7083" clip-path="url(#clipPath2)" fill="none" width="111" rx="4" ry="4" height="52"/>
      <text x="-204.4863" xml:space="preserve" y="443.0716" clip-path="url(#clipPath2)" font-family="sans-serif" stroke="none">set reboot cause</text>
      <text x="-202.4824" xml:space="preserve" y="457.7728" clip-path="url(#clipPath2)" font-family="sans-serif" stroke="none">to Previous App</text>
    </g>
    <g fill="silver" text-rendering="geometricPrecision" shape-rendering="geometricPrecision" transform="matrix(1,0,0,1,231,-64)" stroke="silver">
      <rect x="-190.75" y="524.4583" clip-path="url(#clipPath2)" width="61.25" rx="4" ry="4" height="37.4167" stroke="none"/>
    </g>
    <g text-rendering="geometricPrecision" stroke-miterlimit="1.45" shape-rendering="geometricPrecision" transform="matrix(1,0,0,1,231,-64)" stroke-linecap="butt">
      <rect x="-190.75" y="524.4583" clip-path="url(#clipPath2)" fill="none" width="61.25" rx="4" ry="4" height="37.4167"/>
      <text x="-180.1289" xml:space="preserve" y="547.8806" clip-path="url(#clipPath2)" font-family="sans-serif" stroke="none">RESET</text>
    </g>
    <g fill="silver" text-rendering="geometricPrecision" shape-rendering="geometricPrecision" transform="matrix(1,0,0,1,231,-64)" stroke="silver">
      <rect x="157.375" y="590.6667" clip-path="url(#clipPath2)" width="61.25" rx="4" ry="4" height="37.4167" stroke="none"/>
    </g>
    <g text-rendering="geometricPrecision" stroke-miterlimit="1.45" shape-rendering="geometricPrecision" transform="matrix(1,0,0,1,231,-64)" stroke-linecap="butt">
      <rect x="157.375" y="590.6667" clip-path="url(#clipPath2)" fill="none" width="61.25" rx="4" ry="4" height="37.4167"/>
      <text x="167.9961" xml:space="preserve" y="614.0889" clip-path="url(#clipPath2)" font-family="sans-serif" stroke="none">RESET</text>
    </g>
    <g fill="rgb(204,255,255)" text-rendering="geometricPrecision" shape-rendering="geometricPrecision" transform="matrix(1,0,0,1,231,-64)" stroke="rgb(204,255,255)">
      <rect x="457.6094" y="190.7917" clip-path="url(#clipPath2)" width="111" rx="4" ry="4" height="37.4167" stroke="none"/>
    </g>
    <g text-rendering="geometricPrecision" stroke-miterlimit="1.45" shape-rendering="geometricPrecision" transform="matrix(1,0,0,1,231,-64)" stroke-linecap="butt">
      <rect x="457.6094" y="190.7917" clip-path="url(#clipPath2)" fill="none" width="111" rx="4" ry="4" height="37.4167"/>
      <text x="493.0967" xml:space="preserve" y="214.2139" clip-path="url(#clipPath2)" font-family="sans-serif" stroke="none">Backup</text>
    </g>
    <g fill="rgb(204,255,255)" text-rendering="geometricPrecision" shape-rendering="geometricPrecision" transform="matrix(1,0,0,1,231,-64)" stroke="rgb(204,255,255)">
      <rect x="443.8594" y="277.0833" clip-path="url(#clipPath2)" width="136" rx="4" ry="4" height="37.4167" stroke="none"/>
    </g>
    <g text-rendering="geometricPrecision" stroke-miterlimit="1.45" shape-rendering="geometricPrecision" transform="matrix(1,0,0,1,231,-64)" stroke-linecap="butt">
      <rect x="443.8594" y="277.0833" clip-path="url(#clipPath2)" fill="none" width="136" rx="4" ry="4" height="37.4167"/>
      <text x="451.165" xml:space="preserve" y="300.5055" clip-path="url(#clipPath2)" font-family="sans-serif" stroke="none">Receive data from uart</text>
    </g>
    <g fill="rgb(204,255,255)" text-rendering="geometricPrecision" shape-rendering="geometricPrecision" transform="matrix(1,0,0,1,231,-64)" stroke="rgb(204,255,255)">
      <rect x="456.3594" y="350.9167" clip-path="url(#clipPath2)" width="111" rx="4" ry="4" height="37.4167" stroke="none"/>
    </g>
    <g text-rendering="geometricPrecision" stroke-miterlimit="1.45" shape-rendering="geometricPrecision" transform="matrix(1,0,0,1,231,-64)" stroke-linecap="butt">
      <rect x="456.3594" y="350.9167" clip-path="url(#clipPath2)" fill="none" width="111" rx="4" ry="4" height="37.4167"/>
      <text x="489.5234" xml:space="preserve" y="366.9883" clip-path="url(#clipPath2)" font-family="sans-serif" stroke="none">Write to </text>
      <text x="470.501" xml:space="preserve" y="381.6895" clip-path="url(#clipPath2)" font-family="sans-serif" stroke="none">Application Slot</text>
    </g>
    <g fill="rgb(204,255,255)" text-rendering="geometricPrecision" shape-rendering="geometricPrecision" transform="matrix(1,0,0,1,231,-64)" stroke="rgb(204,255,255)">
      <rect x="456.3594" y="424.75" clip-path="url(#clipPath2)" width="111" rx="4" ry="4" height="37.4167" stroke="none"/>
    </g>
    <g text-rendering="geometricPrecision" stroke-miterlimit="1.45" shape-rendering="geometricPrecision" transform="matrix(1,0,0,1,231,-64)" stroke-linecap="butt">
      <rect x="456.3594" y="424.75" clip-path="url(#clipPath2)" fill="none" width="111" rx="4" ry="4" height="37.4167"/>
      <text x="467.498" xml:space="preserve" y="440.8216" clip-path="url(#clipPath2)" font-family="sans-serif" stroke="none">set reboot cause</text>
      <text x="486.8486" xml:space="preserve" y="455.5228" clip-path="url(#clipPath2)" font-family="sans-serif" stroke="none">to normal</text>
    </g>
    <g fill="silver" text-rendering="geometricPrecision" shape-rendering="geometricPrecision" transform="matrix(1,0,0,1,231,-64)" stroke="silver">
      <rect x="481.2344" y="492.1667" clip-path="url(#clipPath2)" width="61.25" rx="4" ry="4" height="37.4167" stroke="none"/>
    </g>
    <g text-rendering="geometricPrecision" stroke-miterlimit="1.45" shape-rendering="geometricPrecision" transform="matrix(1,0,0,1,231,-64)" stroke-linecap="butt">
      <rect x="481.2344" y="492.1667" clip-path="url(#clipPath2)" fill="none" width="61.25" rx="4" ry="4" height="37.4167"/>
      <text x="491.8555" xml:space="preserve" y="515.5889" clip-path="url(#clipPath2)" font-family="sans-serif" stroke="none">RESET</text>
      <path fill="none" d="M188 131 L188 160.9851" clip-path="url(#clipPath2)"/>
      <path d="M188 168.9851 L193 156.9851 L188 159.9851 L183 156.9851 Z" clip-path="url(#clipPath2)" stroke="none"/>
      <path fill="none" d="M132.4678 209.5 L86 209.5 L3.25 209.5 L3.25 294.9646" clip-path="url(#clipPath2)"/>
      <path d="M3.25 302.9646 L8.25 290.9646 L3.25 293.9646 L-1.75 290.9646 Z" clip-path="url(#clipPath2)" stroke="none"/>
      <text x="77.0391" xml:space="preserve" y="200.4639" clip-path="url(#clipPath2)" font-family="sans-serif" stroke="none">Normal</text>
      <path fill="none" d="M188 487.0109 L188 515.258" clip-path="url(#clipPath2)"/>
      <path d="M188 523.258 L193 511.258 L188 514.258 L183 511.258 Z" clip-path="url(#clipPath2)" stroke="none"/>
      <path fill="none" d="M188 249.9968 L188 279.9985" clip-path="url(#clipPath2)"/>
      <path d="M188 287.9985 L193 275.9985 L188 278.9985 L183 275.9985 Z" clip-path="url(#clipPath2)" stroke="none"/>
      <text x="100.5791" xml:space="preserve" y="272.1514" clip-path="url(#clipPath2)" font-family="sans-serif" stroke="none">Load Previous</text>
      <path fill="none" d="M188 380.9916 L188 410.9999" clip-path="url(#clipPath2)"/>
      <path d="M188 418.9999 L193 406.9999 L188 409.9999 L183 406.9999 Z" clip-path="url(#clipPath2)" stroke="none"/>
      <text x="197.6611" xml:space="preserve" y="398.4639" clip-path="url(#clipPath2)" font-family="sans-serif" stroke="none">Yes</text>
      <path fill="none" d="M250.3835 334.5 L313.6875 334.5 L334.3125 334.5 L334.3125 582.6854" clip-path="url(#clipPath2)"/>
      <path d="M334.3125 590.6854 L339.3125 578.6854 L334.3125 581.6854 L329.3125 578.6854 Z" clip-path="url(#clipPath2)" stroke="none"/>
      <text x="282.9463" xml:space="preserve" y="324.2139" clip-path="url(#clipPath2)" font-family="sans-serif" stroke="none">No</text>
      <path fill="none" d="M3.25 366.0217 L3.25 418.9929" clip-path="url(#clipPath2)"/>
      <path d="M3.25 426.9929 L8.25 414.9929 L3.25 417.9929 L-1.75 414.9929 Z" clip-path="url(#clipPath2)" stroke="none"/>
      <text x="11.6611" xml:space="preserve" y="398.7139" clip-path="url(#clipPath2)" font-family="sans-serif" stroke="none">Yes</text>
      <path fill="none" d="M-41.6223 334.5 L-160.125 334.5 L-160.125 334.5 L-160.125 411.7253" clip-path="url(#clipPath2)"/>
      <path d="M-160.125 419.7253 L-155.125 407.7253 L-160.125 410.7253 L-165.125 407.7253 Z" clip-path="url(#clipPath2)" stroke="none"/>
      <text x="-109.6299" xml:space="preserve" y="325.4639" clip-path="url(#clipPath2)" font-family="sans-serif" stroke="none">No</text>
      <path fill="none" d="M-160.125 471.7385 L-160.125 516.4377" clip-path="url(#clipPath2)"/>
      <path d="M-160.125 524.4377 L-155.125 512.4377 L-160.125 515.4377 L-165.125 512.4377 Z" clip-path="url(#clipPath2)" stroke="none"/>
      <path fill="none" d="M188 560.6888 L188 582.6898" clip-path="url(#clipPath2)"/>
      <path d="M188 590.6898 L193 578.6898 L188 581.6898 L183 578.6898 Z" clip-path="url(#clipPath2)" stroke="none"/>
      <path fill="none" d="M243.4744 209.5 L334.3125 209.5 L334.3125 209.5 L449.6282 209.5" clip-path="url(#clipPath2)"/>
      <path d="M457.6282 209.5 L445.6282 204.5 L448.6282 209.5 L445.6282 214.5 Z" clip-path="url(#clipPath2)" stroke="none"/>
      <text x="290.5845" xml:space="preserve" y="202.0264" clip-path="url(#clipPath2)" font-family="sans-serif" stroke="none">OTA_Request</text>
      <path fill="none" d="M220.5468 226.2485 L355.6875 295.7917 L435.8773 295.7917" clip-path="url(#clipPath2)"/>
      <path d="M443.8773 295.7917 L431.8773 290.7917 L434.8773 295.7917 L431.8773 300.7917 Z" clip-path="url(#clipPath2)" stroke="none"/>
      <text x="323.3189" xml:space="preserve" y="278.0025" clip-path="url(#clipPath2)" font-family="sans-serif" stroke="none">First Time Boot</text>
      <path fill="none" d="M512.8378 228.2499 L512.2461 269.0932" clip-path="url(#clipPath2)"/>
      <path d="M512.1302 277.0924 L517.3035 265.166 L512.2606 268.0933 L507.3045 265.0212 Z" clip-path="url(#clipPath2)" stroke="none"/>
      <path fill="none" d="M511.8594 314.5243 L511.8594 347.5654 L511.8594 350.883" clip-path="url(#clipPath2)"/>
      <path d="M511.8594 350.883 L516.8594 338.883 L511.8594 341.883 L506.8594 338.883 Z" clip-path="url(#clipPath2)" stroke="none"/>
      <path fill="none" d="M511.8594 388.3357 L511.8594 416.7522" clip-path="url(#clipPath2)"/>
      <path d="M511.8594 424.7522 L516.8594 412.7522 L511.8594 415.7522 L506.8594 412.7522 Z" clip-path="url(#clipPath2)" stroke="none"/>
      <path fill="none" d="M511.8594 462.1888 L511.8594 484.1898" clip-path="url(#clipPath2)"/>
      <path d="M511.8594 492.1898 L516.8594 480.1898 L511.8594 483.1898 L506.8594 480.1898 Z" clip-path="url(#clipPath2)" stroke="none"/>
    </g>
  </g>
</svg>
