<?xml version="1.0" encoding="UTF-8"?><svg xmlns="http://www.w3.org/2000/svg" xmlns:xlink="http://www.w3.org/1999/xlink" fill-opacity="1" color-rendering="auto" color-interpolation="auto" text-rendering="auto" stroke="black" stroke-linecap="square" width="806" stroke-miterlimit="10" shape-rendering="auto" stroke-opacity="1" fill="black" stroke-dasharray="none" font-weight="normal" stroke-width="1" height="602" font-family="'Dialog'" font-style="normal" stroke-linejoin="miter" font-size="12px" stroke-dashoffset="0" image-rendering="auto">
  <!--Generated by ySVG 2.6-->
  <defs id="genericDefs"/>
  <g>
    <defs id="defs1">
      <clipPath clipPathUnits="userSpaceOnUse" id="clipPath1">
        <path d="M0 0 L806 0 L806 602 L0 602 L0 0 Z"/>
      </clipPath>
      <clipPath clipPathUnits="userSpaceOnUse" id="clipPath2">
        <path d="M-209 -13 L597 -13 L597 589 L-209 589 L-209 -13 Z"/>
      </clipPath>
    </defs>
    <g fill="white" text-rendering="geometricPrecision" shape-rendering="geometricPrecision" transform="translate(209,13)" stroke="white">
      <rect x="-209" width="806" height="602" y="-13" clip-path="url(#clipPath2)" stroke="none"/>
    </g>
    <g fill="rgb(204,255,204)" text-rendering="geometricPrecision" shape-rendering="geometricPrecision" transform="matrix(1,0,0,1,209,13)" stroke="rgb(204,255,204)">
      <ellipse rx="62.375" ry="26" clip-path="url(#clipPath2)" cx="261" cy="28" stroke="none"/>
    </g>
    <g text-rendering="geometricPrecision" stroke-miterlimit="1.45" shape-rendering="geometricPrecision" transform="matrix(1,0,0,1,209,13)" stroke-linecap="butt">
      <ellipse rx="62.375" fill="none" ry="26" clip-path="url(#clipPath2)" cx="261" cy="28"/>
      <text x="210.6445" xml:space="preserve" y="32.7139" clip-path="url(#clipPath2)" font-family="sans-serif" stroke="none">Bootloader START</text>
    </g>
    <g fill="rgb(255,204,0)" text-rendering="geometricPrecision" shape-rendering="geometricPrecision" transform="matrix(1,0,0,1,209,13)" stroke="rgb(255,204,0)">
      <path d="M-29.7422 279.9167 L15.1328 248.4167 L60.0078 279.9167 L15.1328 311.4167 Z" fill-rule="evenodd" clip-path="url(#clipPath2)" stroke="none"/>
    </g>
    <g text-rendering="geometricPrecision" stroke-miterlimit="1.45" shape-rendering="geometricPrecision" transform="matrix(1,0,0,1,209,13)" stroke-linecap="butt">
      <path fill="none" d="M-29.7422 279.9167 L15.1328 248.4167 L60.0078 279.9167 L15.1328 311.4167 Z" fill-rule="evenodd" clip-path="url(#clipPath2)"/>
      <text x="-18.875" xml:space="preserve" y="284.6305" clip-path="url(#clipPath2)" font-family="sans-serif" stroke="none">IS CRC OK?</text>
    </g>
    <g fill="rgb(204,255,255)" text-rendering="geometricPrecision" shape-rendering="geometricPrecision" transform="matrix(1,0,0,1,209,13)" stroke="rgb(204,255,255)">
      <rect x="129.125" y="364.4167" clip-path="url(#clipPath2)" width="104" rx="4" ry="4" height="68" stroke="none"/>
    </g>
    <g text-rendering="geometricPrecision" stroke-miterlimit="1.45" shape-rendering="geometricPrecision" transform="matrix(1,0,0,1,209,13)" stroke-linecap="butt">
      <rect x="129.125" y="364.4167" clip-path="url(#clipPath2)" fill="none" width="104" rx="4" ry="4" height="68"/>
      <text x="141.1055" xml:space="preserve" y="381.0788" clip-path="url(#clipPath2)" font-family="sans-serif" stroke="none">Copy previuos </text>
      <text x="151.7725" xml:space="preserve" y="395.7799" clip-path="url(#clipPath2)" font-family="sans-serif" stroke="none">Application</text>
      <text x="135.4395" xml:space="preserve" y="410.4811" clip-path="url(#clipPath2)" font-family="sans-serif" stroke="none">from backup slot </text>
      <text x="134.0977" xml:space="preserve" y="425.1823" clip-path="url(#clipPath2)" font-family="sans-serif" stroke="none">to Application slot</text>
    </g>
    <g fill="rgb(204,255,255)" text-rendering="geometricPrecision" shape-rendering="geometricPrecision" transform="matrix(1,0,0,1,209,13)" stroke="rgb(204,255,255)">
      <rect x="125.625" y="468.6667" clip-path="url(#clipPath2)" width="111" rx="4" ry="4" height="37.4167" stroke="none"/>
    </g>
    <g text-rendering="geometricPrecision" stroke-miterlimit="1.45" shape-rendering="geometricPrecision" transform="matrix(1,0,0,1,209,13)" stroke-linecap="butt">
      <rect x="125.625" y="468.6667" clip-path="url(#clipPath2)" fill="none" width="111" rx="4" ry="4" height="37.4167"/>
      <text x="136.7637" xml:space="preserve" y="484.7383" clip-path="url(#clipPath2)" font-family="sans-serif" stroke="none">set reboot cause</text>
      <text x="141.1084" xml:space="preserve" y="499.4395" clip-path="url(#clipPath2)" font-family="sans-serif" stroke="none">to Normal Boot</text>
    </g>
    <g fill="rgb(255,204,0)" text-rendering="geometricPrecision" shape-rendering="geometricPrecision" transform="matrix(1,0,0,1,209,13)" stroke="rgb(255,204,0)">
      <path d="M118.75 279.9167 L181.125 233.4166 L243.5 279.9167 L181.125 326.4167 Z" fill-rule="evenodd" clip-path="url(#clipPath2)" stroke="none"/>
    </g>
    <g text-rendering="geometricPrecision" stroke-miterlimit="1.45" shape-rendering="geometricPrecision" transform="matrix(1,0,0,1,209,13)" stroke-linecap="butt">
      <path fill="none" d="M118.75 279.9167 L181.125 233.4166 L243.5 279.9167 L181.125 326.4167 Z" fill-rule="evenodd" clip-path="url(#clipPath2)"/>
      <text x="139.1045" xml:space="preserve" y="277.2799" clip-path="url(#clipPath2)" font-family="sans-serif" stroke="none">Is There a Valid</text>
      <text x="146.7627" xml:space="preserve" y="291.9811" clip-path="url(#clipPath2)" font-family="sans-serif" stroke="none">backup app?</text>
    </g>
    <g fill="red" text-rendering="geometricPrecision" shape-rendering="geometricPrecision" transform="matrix(1,0,0,1,209,13)" stroke="red">
      <rect x="266.625" y="536.0833" clip-path="url(#clipPath2)" width="76.25" rx="4" ry="4" height="37.4167" stroke="none"/>
    </g>
    <g text-rendering="geometricPrecision" stroke-miterlimit="1.45" shape-rendering="geometricPrecision" transform="matrix(1,0,0,1,209,13)" stroke-linecap="butt">
      <rect x="266.625" y="536.0833" clip-path="url(#clipPath2)" fill="none" width="76.25" rx="4" ry="4" height="37.4167"/>
      <text x="289.4131" xml:space="preserve" y="559.5056" clip-path="url(#clipPath2)" font-family="sans-serif" stroke="none">HALT</text>
    </g>
    <g fill="rgb(0,204,255)" text-rendering="geometricPrecision" shape-rendering="geometricPrecision" transform="matrix(1,0,0,1,209,13)" stroke="rgb(0,204,255)">
      <rect x="-193.8594" y="530.875" clip-path="url(#clipPath2)" width="111" rx="4" ry="4" height="37.4167" stroke="none"/>
    </g>
    <g text-rendering="geometricPrecision" stroke-miterlimit="1.45" shape-rendering="geometricPrecision" transform="matrix(1,0,0,1,209,13)" stroke-linecap="butt">
      <rect x="-193.8594" y="530.875" clip-path="url(#clipPath2)" fill="none" width="111" rx="4" ry="4" height="37.4167"/>
      <text x="-182.0498" xml:space="preserve" y="554.2972" clip-path="url(#clipPath2)" font-family="sans-serif" stroke="none">Start Application</text>
    </g>
    <g fill="rgb(204,255,255)" text-rendering="geometricPrecision" shape-rendering="geometricPrecision" transform="matrix(1,0,0,1,209,13)" stroke="rgb(204,255,255)">
      <rect x="-40.3672" y="395.1458" clip-path="url(#clipPath2)" width="111" rx="4" ry="4" height="52" stroke="none"/>
    </g>
    <g text-rendering="geometricPrecision" stroke-miterlimit="1.45" shape-rendering="geometricPrecision" transform="matrix(1,0,0,1,209,13)" stroke-linecap="butt">
      <rect x="-40.3672" y="395.1458" clip-path="url(#clipPath2)" fill="none" width="111" rx="4" ry="4" height="52"/>
      <text x="-29.2285" xml:space="preserve" y="418.5091" clip-path="url(#clipPath2)" font-family="sans-serif" stroke="none">set reboot cause</text>
      <text x="-27.2246" xml:space="preserve" y="433.2103" clip-path="url(#clipPath2)" font-family="sans-serif" stroke="none">to Previous App</text>
    </g>
    <g fill="silver" text-rendering="geometricPrecision" shape-rendering="geometricPrecision" transform="matrix(1,0,0,1,209,13)" stroke="silver">
      <rect x="-15.4922" y="530.875" clip-path="url(#clipPath2)" width="61.25" rx="4" ry="4" height="37.4167" stroke="none"/>
    </g>
    <g text-rendering="geometricPrecision" stroke-miterlimit="1.45" shape-rendering="geometricPrecision" transform="matrix(1,0,0,1,209,13)" stroke-linecap="butt">
      <rect x="-15.4922" y="530.875" clip-path="url(#clipPath2)" fill="none" width="61.25" rx="4" ry="4" height="37.4167"/>
      <text x="-4.8711" xml:space="preserve" y="554.2972" clip-path="url(#clipPath2)" font-family="sans-serif" stroke="none">RESET</text>
    </g>
    <g fill="silver" text-rendering="geometricPrecision" shape-rendering="geometricPrecision" transform="matrix(1,0,0,1,209,13)" stroke="silver">
      <rect x="150.5" y="536.0833" clip-path="url(#clipPath2)" width="61.25" rx="4" ry="4" height="37.4167" stroke="none"/>
    </g>
    <g text-rendering="geometricPrecision" stroke-miterlimit="1.45" shape-rendering="geometricPrecision" transform="matrix(1,0,0,1,209,13)" stroke-linecap="butt">
      <rect x="150.5" y="536.0833" clip-path="url(#clipPath2)" fill="none" width="61.25" rx="4" ry="4" height="37.4167"/>
      <text x="161.1211" xml:space="preserve" y="559.5056" clip-path="url(#clipPath2)" font-family="sans-serif" stroke="none">RESET</text>
    </g>
    <g fill="rgb(204,255,255)" text-rendering="geometricPrecision" shape-rendering="geometricPrecision" transform="matrix(1,0,0,1,209,13)" stroke="rgb(204,255,255)">
      <rect x="458.8594" y="229.5" clip-path="url(#clipPath2)" width="111" rx="4" ry="4" height="37.4167" stroke="none"/>
    </g>
    <g text-rendering="geometricPrecision" stroke-miterlimit="1.45" shape-rendering="geometricPrecision" transform="matrix(1,0,0,1,209,13)" stroke-linecap="butt">
      <rect x="458.8594" y="229.5" clip-path="url(#clipPath2)" fill="none" width="111" rx="4" ry="4" height="37.4167"/>
      <text x="494.3467" xml:space="preserve" y="252.9222" clip-path="url(#clipPath2)" font-family="sans-serif" stroke="none">Backup</text>
    </g>
    <g fill="rgb(204,255,255)" text-rendering="geometricPrecision" shape-rendering="geometricPrecision" transform="matrix(1,0,0,1,209,13)" stroke="rgb(204,255,255)">
      <rect x="445.1094" y="315.7917" clip-path="url(#clipPath2)" width="136" rx="4" ry="4" height="37.4167" stroke="none"/>
    </g>
    <g text-rendering="geometricPrecision" stroke-miterlimit="1.45" shape-rendering="geometricPrecision" transform="matrix(1,0,0,1,209,13)" stroke-linecap="butt">
      <rect x="445.1094" y="315.7917" clip-path="url(#clipPath2)" fill="none" width="136" rx="4" ry="4" height="37.4167"/>
      <text x="452.415" xml:space="preserve" y="339.2139" clip-path="url(#clipPath2)" font-family="sans-serif" stroke="none">Receive data from uart</text>
    </g>
    <g fill="rgb(204,255,255)" text-rendering="geometricPrecision" shape-rendering="geometricPrecision" transform="matrix(1,0,0,1,209,13)" stroke="rgb(204,255,255)">
      <rect x="457.6094" y="389.625" clip-path="url(#clipPath2)" width="111" rx="4" ry="4" height="37.4167" stroke="none"/>
    </g>
    <g text-rendering="geometricPrecision" stroke-miterlimit="1.45" shape-rendering="geometricPrecision" transform="matrix(1,0,0,1,209,13)" stroke-linecap="butt">
      <rect x="457.6094" y="389.625" clip-path="url(#clipPath2)" fill="none" width="111" rx="4" ry="4" height="37.4167"/>
      <text x="490.7734" xml:space="preserve" y="405.6966" clip-path="url(#clipPath2)" font-family="sans-serif" stroke="none">Write to </text>
      <text x="471.751" xml:space="preserve" y="420.3978" clip-path="url(#clipPath2)" font-family="sans-serif" stroke="none">Application Slot</text>
    </g>
    <g fill="rgb(204,255,255)" text-rendering="geometricPrecision" shape-rendering="geometricPrecision" transform="matrix(1,0,0,1,209,13)" stroke="rgb(204,255,255)">
      <rect x="457.6094" y="463.4583" clip-path="url(#clipPath2)" width="111" rx="4" ry="4" height="37.4167" stroke="none"/>
    </g>
    <g text-rendering="geometricPrecision" stroke-miterlimit="1.45" shape-rendering="geometricPrecision" transform="matrix(1,0,0,1,209,13)" stroke-linecap="butt">
      <rect x="457.6094" y="463.4583" clip-path="url(#clipPath2)" fill="none" width="111" rx="4" ry="4" height="37.4167"/>
      <text x="468.748" xml:space="preserve" y="479.5299" clip-path="url(#clipPath2)" font-family="sans-serif" stroke="none">set reboot cause</text>
      <text x="473.0928" xml:space="preserve" y="494.2311" clip-path="url(#clipPath2)" font-family="sans-serif" stroke="none">to Normal Boot</text>
    </g>
    <g fill="silver" text-rendering="geometricPrecision" shape-rendering="geometricPrecision" transform="matrix(1,0,0,1,209,13)" stroke="silver">
      <rect x="482.4844" y="530.875" clip-path="url(#clipPath2)" width="61.25" rx="4" ry="4" height="37.4167" stroke="none"/>
    </g>
    <g text-rendering="geometricPrecision" stroke-miterlimit="1.45" shape-rendering="geometricPrecision" transform="matrix(1,0,0,1,209,13)" stroke-linecap="butt">
      <rect x="482.4844" y="530.875" clip-path="url(#clipPath2)" fill="none" width="61.25" rx="4" ry="4" height="37.4167"/>
      <text x="493.1055" xml:space="preserve" y="554.2972" clip-path="url(#clipPath2)" font-family="sans-serif" stroke="none">RESET</text>
    </g>
    <g fill="rgb(204,153,255)" text-rendering="geometricPrecision" shape-rendering="geometricPrecision" transform="matrix(1,0,0,1,209,13)" stroke="rgb(204,153,255)">
      <rect x="198.625" y="84" clip-path="url(#clipPath2)" width="124.75" rx="4" ry="4" height="37.4167" stroke="none"/>
    </g>
    <g text-rendering="geometricPrecision" stroke-miterlimit="1.45" shape-rendering="geometricPrecision" transform="matrix(1,0,0,1,209,13)" stroke-linecap="butt">
      <rect x="198.625" y="84" clip-path="url(#clipPath2)" fill="none" width="124.75" rx="4" ry="4" height="37.4167"/>
      <text x="203.2939" xml:space="preserve" y="107.4222" clip-path="url(#clipPath2)" font-family="sans-serif" stroke="none">Read Reboot Reason</text>
    </g>
    <g fill="rgb(224,196,253)" text-rendering="geometricPrecision" shape-rendering="geometricPrecision" transform="matrix(1,0,0,1,209,13)" stroke="rgb(224,196,253)">
      <rect x="-40.3672" y="162.4167" clip-path="url(#clipPath2)" width="111" rx="4" ry="4" height="30" stroke="none"/>
    </g>
    <g text-rendering="geometricPrecision" stroke-miterlimit="1.45" shape-rendering="geometricPrecision" transform="matrix(1,0,0,1,209,13)" stroke-linecap="butt">
      <rect x="-40.3672" y="162.4167" clip-path="url(#clipPath2)" fill="none" width="111" rx="4" ry="4" height="30"/>
      <text x="-18.2129" xml:space="preserve" y="182.1305" clip-path="url(#clipPath2)" font-family="sans-serif" stroke="none">Normal Boot</text>
    </g>
    <g fill="rgb(224,196,253)" text-rendering="geometricPrecision" shape-rendering="geometricPrecision" transform="matrix(1,0,0,1,209,13)" stroke="rgb(224,196,253)">
      <rect x="125.625" y="162.4167" clip-path="url(#clipPath2)" width="111" rx="4" ry="4" height="30" stroke="none"/>
    </g>
    <g text-rendering="geometricPrecision" stroke-miterlimit="1.45" shape-rendering="geometricPrecision" transform="matrix(1,0,0,1,209,13)" stroke-linecap="butt">
      <rect x="125.625" y="162.4167" clip-path="url(#clipPath2)" fill="none" width="111" rx="4" ry="4" height="30"/>
      <text x="130.4238" xml:space="preserve" y="182.1305" clip-path="url(#clipPath2)" font-family="sans-serif" stroke="none">Load Previous App</text>
    </g>
    <g fill="rgb(224,196,253)" text-rendering="geometricPrecision" shape-rendering="geometricPrecision" transform="matrix(1,0,0,1,209,13)" stroke="rgb(224,196,253)">
      <rect x="291.6172" y="162.4167" clip-path="url(#clipPath2)" width="111" rx="4" ry="4" height="30" stroke="none"/>
    </g>
    <g text-rendering="geometricPrecision" stroke-miterlimit="1.45" shape-rendering="geometricPrecision" transform="matrix(1,0,0,1,209,13)" stroke-linecap="butt">
      <rect x="291.6172" y="162.4167" clip-path="url(#clipPath2)" fill="none" width="111" rx="4" ry="4" height="30"/>
      <text x="321.4443" xml:space="preserve" y="182.1305" clip-path="url(#clipPath2)" font-family="sans-serif" stroke="none">First Boot</text>
    </g>
    <g fill="rgb(224,196,253)" text-rendering="geometricPrecision" shape-rendering="geometricPrecision" transform="matrix(1,0,0,1,209,13)" stroke="rgb(224,196,253)">
      <rect x="457.6094" y="162.4167" clip-path="url(#clipPath2)" width="111" rx="4" ry="4" height="30" stroke="none"/>
    </g>
    <g text-rendering="geometricPrecision" stroke-miterlimit="1.45" shape-rendering="geometricPrecision" transform="matrix(1,0,0,1,209,13)" stroke-linecap="butt">
      <rect x="457.6094" y="162.4167" clip-path="url(#clipPath2)" fill="none" width="111" rx="4" ry="4" height="30"/>
      <text x="479.7637" xml:space="preserve" y="182.1305" clip-path="url(#clipPath2)" font-family="sans-serif" stroke="none">Normal Boot</text>
      <path fill="none" d="M181.125 432.4276 L181.125 460.6747" clip-path="url(#clipPath2)"/>
      <path d="M181.125 468.6747 L186.125 456.6747 L181.125 459.6747 L176.125 456.6747 Z" clip-path="url(#clipPath2)" stroke="none"/>
      <path fill="none" d="M181.125 326.4082 L181.125 356.4166" clip-path="url(#clipPath2)"/>
      <path d="M181.125 364.4166 L186.125 352.4166 L181.125 355.4166 L176.125 352.4166 Z" clip-path="url(#clipPath2)" stroke="none"/>
      <text x="190.7861" xml:space="preserve" y="343.8805" clip-path="url(#clipPath2)" font-family="sans-serif" stroke="none">Yes</text>
      <path fill="none" d="M243.5085 279.9167 L306.8125 279.9167 L306.8125 279.9167 L304.9503 528.1023" clip-path="url(#clipPath2)"/>
      <path d="M304.8902 536.1021 L309.9801 524.1399 L304.9578 527.1023 L299.9804 524.0649 Z" clip-path="url(#clipPath2)" stroke="none"/>
      <text x="261.0713" xml:space="preserve" y="272.1305" clip-path="url(#clipPath2)" font-family="sans-serif" stroke="none">No</text>
      <path fill="none" d="M-29.7601 279.9167 L-95.0417 279.9167 L-138.3594 279.9167 L-138.3594 522.8528" clip-path="url(#clipPath2)"/>
      <path d="M-138.3594 530.8528 L-133.3594 518.8528 L-138.3594 521.8528 L-143.3594 518.8528 Z" clip-path="url(#clipPath2)" stroke="none"/>
      <text x="-90.1503" xml:space="preserve" y="274.6305" clip-path="url(#clipPath2)" font-family="sans-serif" stroke="none">Yes</text>
      <path fill="none" d="M15.1328 311.3927 L15.1328 334.5 L15.1328 387.1267" clip-path="url(#clipPath2)"/>
      <path d="M15.1328 395.1267 L20.1328 383.1267 L15.1328 386.1267 L10.1328 383.1267 Z" clip-path="url(#clipPath2)" stroke="none"/>
      <text x="-10.0371" xml:space="preserve" y="349.693" clip-path="url(#clipPath2)" font-family="sans-serif" stroke="none">No</text>
      <path fill="none" d="M15.1328 447.1406 L15.1328 522.8505" clip-path="url(#clipPath2)"/>
      <path d="M15.1328 530.8505 L20.1328 518.8505 L15.1328 521.8505 L10.1328 518.8505 Z" clip-path="url(#clipPath2)" stroke="none"/>
      <path fill="none" d="M181.125 506.1055 L181.125 528.1064" clip-path="url(#clipPath2)"/>
      <path d="M181.125 536.1064 L186.125 524.1064 L181.125 527.1064 L176.125 524.1064 Z" clip-path="url(#clipPath2)" stroke="none"/>
      <path fill="none" d="M514.0878 266.9582 L513.4961 307.8015" clip-path="url(#clipPath2)"/>
      <path d="M513.3802 315.8007 L518.5535 303.8744 L513.5106 306.8017 L508.5545 303.7296 Z" clip-path="url(#clipPath2)" stroke="none"/>
      <path fill="none" d="M513.1094 353.2326 L513.1094 386.2738 L513.1094 389.5913" clip-path="url(#clipPath2)"/>
      <path d="M513.1094 389.5913 L518.1094 377.5913 L513.1094 380.5913 L508.1094 377.5913 Z" clip-path="url(#clipPath2)" stroke="none"/>
      <path fill="none" d="M513.1094 427.044 L513.1094 455.4605" clip-path="url(#clipPath2)"/>
      <path d="M513.1094 463.4605 L518.1094 451.4605 L513.1094 454.4605 L508.1094 451.4605 Z" clip-path="url(#clipPath2)" stroke="none"/>
      <path fill="none" d="M513.1094 500.8972 L513.1094 522.8981" clip-path="url(#clipPath2)"/>
      <path d="M513.1094 530.8981 L518.1094 518.8981 L513.1094 521.8981 L508.1094 518.8981 Z" clip-path="url(#clipPath2)" stroke="none"/>
      <path fill="none" d="M261 54 L261 76.0146" clip-path="url(#clipPath2)"/>
      <path d="M261 84.0146 L266 72.0146 L261 75.0146 L256 72.0146 Z" clip-path="url(#clipPath2)" stroke="none"/>
      <path fill="none" d="M261 121.3995 L261 142.5 L15.1328 142.5 L15.1328 154.4475" clip-path="url(#clipPath2)"/>
      <path d="M15.1328 162.4475 L20.1328 150.4475 L15.1328 153.4475 L10.1328 150.4475 Z" clip-path="url(#clipPath2)" stroke="none"/>
      <path fill="none" d="M15.1328 192.4063 L15.1328 240.4249" clip-path="url(#clipPath2)"/>
      <path d="M15.1328 248.4249 L20.1328 236.4249 L15.1328 239.4249 L10.1328 236.4249 Z" clip-path="url(#clipPath2)" stroke="none"/>
      <path fill="none" d="M261 121.4275 L261 139.5 L261 142.5 L181.125 142.5 L181.125 154.4475" clip-path="url(#clipPath2)"/>
      <path d="M181.125 162.4475 L186.125 150.4475 L181.125 153.4475 L176.125 150.4475 Z" clip-path="url(#clipPath2)" stroke="none"/>
      <path fill="none" d="M181.125 192.4241 L181.125 230.5 L181.125 233.4438" clip-path="url(#clipPath2)"/>
      <path d="M181.125 233.4438 L186.125 221.4438 L181.125 224.4438 L176.125 221.4438 Z" clip-path="url(#clipPath2)" stroke="none"/>
      <path fill="none" d="M261 121.4419 L261 135.5 L261 142.5 L347.1172 142.5 L347.1172 154.4475" clip-path="url(#clipPath2)"/>
      <path d="M347.1172 162.4475 L352.1172 150.4475 L347.1172 153.4475 L342.1172 150.4475 Z" clip-path="url(#clipPath2)" stroke="none"/>
      <path fill="none" d="M347.1172 192.3863 L347.1172 260.5 L347.1172 334.5 L437.1482 334.5" clip-path="url(#clipPath2)"/>
      <path d="M445.1482 334.5 L433.1482 329.5 L436.1482 334.5 L433.1482 339.5 Z" clip-path="url(#clipPath2)" stroke="none"/>
      <path fill="none" d="M261 121.3995 L261 142.5 L514.3594 142.1833 L513.924 154.4544" clip-path="url(#clipPath2)"/>
      <path d="M513.6404 162.4493 L519.0627 150.6342 L513.9595 153.455 L509.069 150.2796 Z" clip-path="url(#clipPath2)" stroke="none"/>
      <path fill="none" d="M513.3737 192.3839 L513.8875 221.4833" clip-path="url(#clipPath2)"/>
      <path d="M514.0287 229.4821 L518.816 217.3957 L513.8698 220.4835 L508.8176 217.5722 Z" clip-path="url(#clipPath2)" stroke="none"/>
    </g>
  </g>
</svg>
